<svg width="60" height="60" viewBox="0 0 60 60" fill="none" xmlns="http://www.w3.org/2000/svg">
<circle cx="30" cy="30" r="29.1853" stroke="#636363" stroke-width="1.62942"/>
<path d="M37.6913 24.4871L36.7052 33.8006C36.6748 34.0469 36.5487 34.2731 36.3542 34.4306C36.1596 34.588 35.9121 34.6641 35.665 34.6424C35.4179 34.6208 35.1909 34.5031 35.033 34.3147C34.875 34.1264 34.7988 33.8824 34.8206 33.6354L35.5662 26.593L22.608 37.2645C22.4126 37.4254 22.1624 37.5035 21.9124 37.4816C21.6624 37.4597 21.4332 37.3396 21.2752 37.1476C21.1171 36.9557 21.0431 36.7077 21.0696 36.4582C21.096 36.2087 21.2206 35.9781 21.416 35.8171L34.3743 25.1456L27.3196 24.5271C27.1943 24.5183 27.0724 24.4846 26.9611 24.4282C26.8497 24.3717 26.7512 24.2934 26.6712 24.198C26.5912 24.1027 26.5314 23.992 26.4952 23.8726C26.459 23.7531 26.4472 23.6273 26.4604 23.5023C26.4736 23.3774 26.5116 23.2559 26.5722 23.145C26.6328 23.034 26.7148 22.9358 26.8133 22.856C26.9118 22.7763 27.025 22.7166 27.1461 22.6805C27.2672 22.6444 27.3939 22.6326 27.5188 22.6457L36.8486 23.4638C37.0985 23.4858 37.3277 23.6059 37.4857 23.7978C37.6437 23.9897 37.7177 24.2376 37.6913 24.4871Z" fill="#636363"/>
</svg>
